# xmcd
#
# Track frame offsets:
#	150
#	19557
#	55469
#	74380
#	108864
#	128148
#	156904
#	163640
#	172460
#	183996
#	202597
#	208731
#	222359
#
# Disc length: 3075 seconds
#
# Revision: 0
# Processed by: cddbd v1.5.2PL0 Copyright (c) Steve Scherf et al.
# Submitted via: EasyCDDAExtractor 11.1.0.1
#
DISCID=bb0c010d
DTITLE=Honey B. and T-Bones - Live! Vol.1 Rockender tornado aus Finnland - Live 
DTITLE=in Hannover 1994 cd2
DYEAR=2007
DGENRE=Blues
TTITLE0=Messin' With My Bread
TTITLE1=Medley Let It Rock-Munsters Theme-Tequila-Let It Rock
TTITLE2=Big Cat
TTITLE3=Medley Tramp-Footprints Of Jeti-I Feel Good-These Boots Are Made Of Wa
TTITLE3=lking-Sen-Sha-Shun-Tramp
TTITLE4=Three Hundred Pounds Of Joy
TTITLE5=Bright Lights, Big City
TTITLE6="Collective Tequila"
TTITLE7="Zu Verkaufen"
TTITLE8=There'll Be A Hot Time In The Old Town Tonight
TTITLE9=Gimme A Pigfoot (And A Bottle Of Beer)
TTITLE10=Rawhide
TTITLE11=V-8 Ford
TTITLE12=Rumble
EXTD=
EXTT0=
EXTT1=
EXTT2=
EXTT3=
EXTT4=
EXTT5=
EXTT6=
EXTT7=
EXTT8=
EXTT9=
EXTT10=
EXTT11=
EXTT12=
PLAYORDER=
